<mxfile host="www.draw.io" modified="2019-11-28T00:59:54.729Z" agent="Mozilla/5.0 (Windows NT 10.0; Win64; x64; rv:70.0) Gecko/20100101 Firefox/70.0" etag="cAQbsNa_S7gxdJlIU4Mv" version="12.3.1" type="github" pages="1">
  <diagram id="YTI-wykyhFXnW_U7o8Pz" name="Page-1">
    <mxGraphModel dx="2198" dy="764" grid="1" gridSize="10" guides="1" tooltips="1" connect="1" arrows="1" fold="1" page="1" pageScale="1" pageWidth="827" pageHeight="1169" math="0" shadow="0">
      <root>
        <mxCell id="0"/>
        <mxCell id="1" parent="0"/>
        <mxCell id="JWwVjYSpnplKkP4Ghm3m-4" value="" style="edgeStyle=orthogonalEdgeStyle;rounded=0;orthogonalLoop=1;jettySize=auto;html=1;fontColor=#121212;exitX=0.25;exitY=1;exitDx=0;exitDy=0;" edge="1" parent="1" source="JWwVjYSpnplKkP4Ghm3m-2" target="JWwVjYSpnplKkP4Ghm3m-3">
          <mxGeometry relative="1" as="geometry"/>
        </mxCell>
        <mxCell id="JWwVjYSpnplKkP4Ghm3m-29" value="" style="edgeStyle=orthogonalEdgeStyle;rounded=0;orthogonalLoop=1;jettySize=auto;html=1;fontColor=#121212;" edge="1" parent="1" source="JWwVjYSpnplKkP4Ghm3m-2" target="JWwVjYSpnplKkP4Ghm3m-28">
          <mxGeometry relative="1" as="geometry"/>
        </mxCell>
        <mxCell id="JWwVjYSpnplKkP4Ghm3m-2" value="MainForm" style="rounded=0;whiteSpace=wrap;html=1;strokeColor=#000000;fontColor=#121212;" vertex="1" parent="1">
          <mxGeometry x="300" y="60" width="270" height="70" as="geometry"/>
        </mxCell>
        <mxCell id="JWwVjYSpnplKkP4Ghm3m-28" value="diagram(时序图)" style="rounded=0;whiteSpace=wrap;html=1;strokeColor=#000000;fontColor=#121212;" vertex="1" parent="1">
          <mxGeometry x="413.5" y="330" width="95" height="70" as="geometry"/>
        </mxCell>
        <mxCell id="JWwVjYSpnplKkP4Ghm3m-6" value="" style="edgeStyle=orthogonalEdgeStyle;rounded=0;orthogonalLoop=1;jettySize=auto;html=1;fontColor=#121212;exitX=0.25;exitY=1;exitDx=0;exitDy=0;" edge="1" parent="1" source="JWwVjYSpnplKkP4Ghm3m-3" target="JWwVjYSpnplKkP4Ghm3m-5">
          <mxGeometry relative="1" as="geometry"/>
        </mxCell>
        <mxCell id="JWwVjYSpnplKkP4Ghm3m-8" value="" style="edgeStyle=orthogonalEdgeStyle;rounded=0;orthogonalLoop=1;jettySize=auto;html=1;fontColor=#121212;" edge="1" parent="1" source="JWwVjYSpnplKkP4Ghm3m-3" target="JWwVjYSpnplKkP4Ghm3m-7">
          <mxGeometry relative="1" as="geometry"/>
        </mxCell>
        <mxCell id="JWwVjYSpnplKkP4Ghm3m-12" value="" style="edgeStyle=orthogonalEdgeStyle;rounded=0;orthogonalLoop=1;jettySize=auto;html=1;fontColor=#121212;exitX=0.75;exitY=1;exitDx=0;exitDy=0;" edge="1" parent="1" source="JWwVjYSpnplKkP4Ghm3m-2" target="JWwVjYSpnplKkP4Ghm3m-11">
          <mxGeometry relative="1" as="geometry"/>
        </mxCell>
        <mxCell id="JWwVjYSpnplKkP4Ghm3m-14" value="" style="edgeStyle=orthogonalEdgeStyle;rounded=0;orthogonalLoop=1;jettySize=auto;html=1;fontColor=#121212;exitX=0;exitY=0.5;exitDx=0;exitDy=0;" edge="1" parent="1" source="JWwVjYSpnplKkP4Ghm3m-2" target="JWwVjYSpnplKkP4Ghm3m-13">
          <mxGeometry relative="1" as="geometry"/>
        </mxCell>
        <mxCell id="JWwVjYSpnplKkP4Ghm3m-23" value="" style="edgeStyle=orthogonalEdgeStyle;rounded=0;orthogonalLoop=1;jettySize=auto;html=1;fontColor=#121212;" edge="1" parent="1" source="JWwVjYSpnplKkP4Ghm3m-3" target="JWwVjYSpnplKkP4Ghm3m-22">
          <mxGeometry relative="1" as="geometry"/>
        </mxCell>
        <mxCell id="JWwVjYSpnplKkP4Ghm3m-34" value="" style="edgeStyle=orthogonalEdgeStyle;rounded=0;orthogonalLoop=1;jettySize=auto;html=1;fontColor=#121212;" edge="1" parent="1" source="JWwVjYSpnplKkP4Ghm3m-3" target="JWwVjYSpnplKkP4Ghm3m-33">
          <mxGeometry relative="1" as="geometry"/>
        </mxCell>
        <mxCell id="JWwVjYSpnplKkP4Ghm3m-3" value="&lt;div&gt;IDEFrame&lt;/div&gt;" style="rounded=0;whiteSpace=wrap;html=1;strokeColor=#000000;fontColor=#121212;" vertex="1" parent="1">
          <mxGeometry x="60" y="170" width="140" height="70" as="geometry"/>
        </mxCell>
        <mxCell id="JWwVjYSpnplKkP4Ghm3m-33" value="工程树" style="rounded=0;whiteSpace=wrap;html=1;strokeColor=#000000;fontColor=#121212;" vertex="1" parent="1">
          <mxGeometry x="-295" y="315" width="140" height="70" as="geometry"/>
        </mxCell>
        <mxCell id="JWwVjYSpnplKkP4Ghm3m-25" value="" style="edgeStyle=orthogonalEdgeStyle;rounded=0;orthogonalLoop=1;jettySize=auto;html=1;fontColor=#121212;" edge="1" parent="1" source="JWwVjYSpnplKkP4Ghm3m-22" target="JWwVjYSpnplKkP4Ghm3m-24">
          <mxGeometry relative="1" as="geometry"/>
        </mxCell>
        <mxCell id="JWwVjYSpnplKkP4Ghm3m-22" value="&lt;div&gt;Viewer&lt;/div&gt;" style="rounded=0;whiteSpace=wrap;html=1;strokeColor=#000000;fontColor=#121212;" vertex="1" parent="1">
          <mxGeometry x="230" y="330" width="140" height="70" as="geometry"/>
        </mxCell>
        <mxCell id="JWwVjYSpnplKkP4Ghm3m-24" value="ST/LD/FBD等" style="rounded=0;whiteSpace=wrap;html=1;strokeColor=#000000;fontColor=#121212;" vertex="1" parent="1">
          <mxGeometry x="230" y="470" width="140" height="70" as="geometry"/>
        </mxCell>
        <mxCell id="JWwVjYSpnplKkP4Ghm3m-13" value="&lt;div&gt;Logger&lt;/div&gt;" style="rounded=0;whiteSpace=wrap;html=1;strokeColor=#000000;fontColor=#121212;" vertex="1" parent="1">
          <mxGeometry x="-360" y="60" width="140" height="70" as="geometry"/>
        </mxCell>
        <mxCell id="JWwVjYSpnplKkP4Ghm3m-16" value="" style="edgeStyle=orthogonalEdgeStyle;rounded=0;orthogonalLoop=1;jettySize=auto;html=1;fontColor=#121212;exitX=0.25;exitY=1;exitDx=0;exitDy=0;" edge="1" parent="1" source="JWwVjYSpnplKkP4Ghm3m-11" target="JWwVjYSpnplKkP4Ghm3m-15">
          <mxGeometry relative="1" as="geometry"/>
        </mxCell>
        <mxCell id="JWwVjYSpnplKkP4Ghm3m-18" value="" style="edgeStyle=orthogonalEdgeStyle;rounded=0;orthogonalLoop=1;jettySize=auto;html=1;fontColor=#121212;exitX=0.5;exitY=1;exitDx=0;exitDy=0;" edge="1" parent="1" source="JWwVjYSpnplKkP4Ghm3m-11" target="JWwVjYSpnplKkP4Ghm3m-17">
          <mxGeometry relative="1" as="geometry"/>
        </mxCell>
        <mxCell id="JWwVjYSpnplKkP4Ghm3m-20" value="" style="edgeStyle=orthogonalEdgeStyle;rounded=0;orthogonalLoop=1;jettySize=auto;html=1;fontColor=#121212;exitX=1;exitY=0.75;exitDx=0;exitDy=0;" edge="1" parent="1" source="JWwVjYSpnplKkP4Ghm3m-11" target="JWwVjYSpnplKkP4Ghm3m-19">
          <mxGeometry relative="1" as="geometry"/>
        </mxCell>
        <mxCell id="JWwVjYSpnplKkP4Ghm3m-32" value="" style="edgeStyle=orthogonalEdgeStyle;rounded=0;orthogonalLoop=1;jettySize=auto;html=1;fontColor=#121212;exitX=0.75;exitY=1;exitDx=0;exitDy=0;" edge="1" parent="1" source="JWwVjYSpnplKkP4Ghm3m-11" target="JWwVjYSpnplKkP4Ghm3m-31">
          <mxGeometry relative="1" as="geometry"/>
        </mxCell>
        <mxCell id="JWwVjYSpnplKkP4Ghm3m-11" value="&lt;div&gt;ProjectControl&lt;/div&gt;&lt;div&gt;(mainFrom,logger)&lt;/div&gt;" style="rounded=0;whiteSpace=wrap;html=1;strokeColor=#000000;fontColor=#121212;" vertex="1" parent="1">
          <mxGeometry x="710" y="240" width="140" height="70" as="geometry"/>
        </mxCell>
        <mxCell id="JWwVjYSpnplKkP4Ghm3m-31" value="debugger" style="rounded=0;whiteSpace=wrap;html=1;strokeColor=#000000;fontColor=#121212;" vertex="1" parent="1">
          <mxGeometry x="880" y="385" width="140" height="70" as="geometry"/>
        </mxCell>
        <mxCell id="JWwVjYSpnplKkP4Ghm3m-19" value="config(硬件组态)" style="rounded=0;whiteSpace=wrap;html=1;strokeColor=#000000;fontColor=#121212;" vertex="1" parent="1">
          <mxGeometry x="1060" y="385" width="140" height="70" as="geometry"/>
        </mxCell>
        <mxCell id="JWwVjYSpnplKkP4Ghm3m-17" value="通讯组件" style="rounded=0;whiteSpace=wrap;html=1;strokeColor=#000000;fontColor=#121212;" vertex="1" parent="1">
          <mxGeometry x="710" y="385" width="140" height="70" as="geometry"/>
        </mxCell>
        <mxCell id="JWwVjYSpnplKkP4Ghm3m-15" value="&lt;div&gt;ICEBUILD&lt;/div&gt;&lt;div&gt;&lt;br&gt;&lt;/div&gt;" style="rounded=0;whiteSpace=wrap;html=1;strokeColor=#000000;fontColor=#121212;" vertex="1" parent="1">
          <mxGeometry x="560" y="385" width="140" height="70" as="geometry"/>
        </mxCell>
        <mxCell id="JWwVjYSpnplKkP4Ghm3m-7" value="&lt;pre style=&quot;font-family: &amp;#34;宋体&amp;#34; ; font-size: 9pt&quot;&gt;&lt;span style=&quot;background-color: rgb(255 , 255 , 255)&quot;&gt;&lt;font color=&quot;#121212&quot;&gt;AuiNotebook&lt;/font&gt;&lt;/span&gt;&lt;/pre&gt;&lt;div&gt;&lt;br&gt;&lt;/div&gt;&lt;div&gt;各种panel&lt;/div&gt;&lt;div&gt;&lt;br&gt;&lt;/div&gt;" style="rounded=0;whiteSpace=wrap;html=1;strokeColor=#000000;fontColor=#121212;" vertex="1" parent="1">
          <mxGeometry x="55" y="330" width="140" height="70" as="geometry"/>
        </mxCell>
        <mxCell id="JWwVjYSpnplKkP4Ghm3m-5" value="&lt;pre style=&quot;font-family: &amp;#34;宋体&amp;#34; ; font-size: 9pt&quot;&gt;&lt;span style=&quot;background-color: rgb(255 , 255 , 255)&quot;&gt;&lt;font color=&quot;#121212&quot;&gt;AUIManager&lt;/font&gt;&lt;/span&gt;&lt;/pre&gt;" style="rounded=0;whiteSpace=wrap;html=1;strokeColor=#000000;fontColor=#121212;" vertex="1" parent="1">
          <mxGeometry x="-120" y="330" width="140" height="70" as="geometry"/>
        </mxCell>
      </root>
    </mxGraphModel>
  </diagram>
</mxfile>
